<mxfile host="app.diagrams.net" modified="2022-12-23T04:24:38.646Z" agent="5.0 (Windows NT 10.0; Win64; x64) AppleWebKit/537.36 (KHTML, like Gecko) Chrome/108.0.0.0 Safari/537.36 Edg/108.0.1462.54" version="20.7.4" etag="_LHTJF_MwziQXDL0wCfp" type="github">
  <diagram id="i8aKlON5BFAKD-ZzM1Su" name="Page-1">
    <mxGraphModel dx="616" dy="573" grid="1" gridSize="10" guides="1" tooltips="1" connect="1" arrows="1" fold="1" page="1" pageScale="1" pageWidth="850" pageHeight="1100" math="0" shadow="0">
      <root>
        <mxCell id="0" />
        <mxCell id="1" parent="0" />
        <mxCell id="63i7wqGlK94Z1JRqRX3E-2" value="" style="edgeStyle=orthogonalEdgeStyle;rounded=0;orthogonalLoop=1;jettySize=auto;html=1;" edge="1" parent="1" source="63i7wqGlK94Z1JRqRX3E-3">
          <mxGeometry relative="1" as="geometry">
            <mxPoint x="215.0999999999999" y="140" as="targetPoint" />
          </mxGeometry>
        </mxCell>
        <mxCell id="63i7wqGlK94Z1JRqRX3E-3" value="START&lt;br&gt;submenu_A()" style="ellipse;whiteSpace=wrap;html=1;rounded=0;" vertex="1" parent="1">
          <mxGeometry x="170" width="90" height="60" as="geometry" />
        </mxCell>
        <mxCell id="63i7wqGlK94Z1JRqRX3E-4" value="&lt;div&gt;import option_functions as options&lt;/div&gt;&lt;div&gt;from data import year_range, years&lt;/div&gt;" style="rounded=0;whiteSpace=wrap;html=1;glass=0;dashed=1;" vertex="1" parent="1">
          <mxGeometry x="255.12" y="70" width="194.88" height="60" as="geometry" />
        </mxCell>
        <mxCell id="63i7wqGlK94Z1JRqRX3E-5" value="" style="endArrow=none;dashed=1;html=1;rounded=0;strokeColor=default;entryX=0;entryY=0.5;entryDx=0;entryDy=0;" edge="1" parent="1" target="63i7wqGlK94Z1JRqRX3E-4">
          <mxGeometry width="50" height="50" relative="1" as="geometry">
            <mxPoint x="215" y="100" as="sourcePoint" />
            <mxPoint x="407.12" y="320" as="targetPoint" />
          </mxGeometry>
        </mxCell>
        <mxCell id="63i7wqGlK94Z1JRqRX3E-6" value="Initialise year_sel to &quot;&quot;" style="rounded=0;whiteSpace=wrap;html=1;" vertex="1" parent="1">
          <mxGeometry x="155" y="240" width="120" height="60" as="geometry" />
        </mxCell>
        <mxCell id="63i7wqGlK94Z1JRqRX3E-8" value="" style="edgeStyle=orthogonalEdgeStyle;rounded=0;orthogonalLoop=1;jettySize=auto;html=1;" edge="1" parent="1" source="63i7wqGlK94Z1JRqRX3E-7" target="63i7wqGlK94Z1JRqRX3E-6">
          <mxGeometry relative="1" as="geometry" />
        </mxCell>
        <mxCell id="63i7wqGlK94Z1JRqRX3E-7" value="disp_header(&quot;OPTION A&quot;)" style="shape=process;whiteSpace=wrap;html=1;backgroundOutline=1;size=0.0945945945945946;" vertex="1" parent="1">
          <mxGeometry x="122.5" y="140" width="185" height="60" as="geometry" />
        </mxCell>
        <mxCell id="63i7wqGlK94Z1JRqRX3E-9" value="" style="edgeStyle=orthogonalEdgeStyle;rounded=0;orthogonalLoop=1;jettySize=auto;html=1;" edge="1" parent="1" target="63i7wqGlK94Z1JRqRX3E-11">
          <mxGeometry relative="1" as="geometry">
            <mxPoint x="215" y="300" as="sourcePoint" />
          </mxGeometry>
        </mxCell>
        <mxCell id="63i7wqGlK94Z1JRqRX3E-10" value="" style="edgeStyle=orthogonalEdgeStyle;rounded=0;orthogonalLoop=1;jettySize=auto;html=1;" edge="1" parent="1" source="63i7wqGlK94Z1JRqRX3E-11" target="63i7wqGlK94Z1JRqRX3E-13">
          <mxGeometry relative="1" as="geometry" />
        </mxCell>
        <mxCell id="63i7wqGlK94Z1JRqRX3E-11" value="set loop to True" style="rounded=0;whiteSpace=wrap;html=1;" vertex="1" parent="1">
          <mxGeometry x="158.5" y="340" width="113" height="50" as="geometry" />
        </mxCell>
        <mxCell id="63i7wqGlK94Z1JRqRX3E-12" value="" style="edgeStyle=orthogonalEdgeStyle;rounded=0;orthogonalLoop=1;jettySize=auto;html=1;" edge="1" parent="1" source="63i7wqGlK94Z1JRqRX3E-13">
          <mxGeometry relative="1" as="geometry">
            <mxPoint x="215" y="530" as="targetPoint" />
          </mxGeometry>
        </mxCell>
        <mxCell id="63i7wqGlK94Z1JRqRX3E-49" style="edgeStyle=orthogonalEdgeStyle;rounded=0;orthogonalLoop=1;jettySize=auto;html=1;exitX=0;exitY=0.5;exitDx=0;exitDy=0;" edge="1" parent="1" source="63i7wqGlK94Z1JRqRX3E-13">
          <mxGeometry relative="1" as="geometry">
            <mxPoint x="215" y="1010" as="targetPoint" />
            <Array as="points">
              <mxPoint x="60" y="460" />
              <mxPoint x="60" y="1010" />
            </Array>
          </mxGeometry>
        </mxCell>
        <mxCell id="63i7wqGlK94Z1JRqRX3E-13" value="loop" style="rhombus;whiteSpace=wrap;html=1;rounded=0;" vertex="1" parent="1">
          <mxGeometry x="166" y="430" width="98" height="60" as="geometry" />
        </mxCell>
        <mxCell id="63i7wqGlK94Z1JRqRX3E-14" value="True" style="text;html=1;strokeColor=none;fillColor=none;align=center;verticalAlign=middle;whiteSpace=wrap;rounded=0;fontFamily=Helvetica;fontSize=12.1;" vertex="1" parent="1">
          <mxGeometry x="208" y="490" width="60" height="30" as="geometry" />
        </mxCell>
        <mxCell id="63i7wqGlK94Z1JRqRX3E-15" value="False" style="text;html=1;strokeColor=none;fillColor=none;align=center;verticalAlign=middle;whiteSpace=wrap;rounded=0;fontFamily=Helvetica;fontSize=12.1;" vertex="1" parent="1">
          <mxGeometry x="110" y="430" width="60" height="30" as="geometry" />
        </mxCell>
        <mxCell id="63i7wqGlK94Z1JRqRX3E-16" value="" style="edgeStyle=orthogonalEdgeStyle;rounded=0;orthogonalLoop=1;jettySize=auto;html=1;" edge="1" parent="1" source="63i7wqGlK94Z1JRqRX3E-17">
          <mxGeometry relative="1" as="geometry">
            <mxPoint x="215.29999999999995" y="610" as="targetPoint" />
          </mxGeometry>
        </mxCell>
        <mxCell id="63i7wqGlK94Z1JRqRX3E-17" value="execute try block" style="rounded=0;whiteSpace=wrap;html=1;" vertex="1" parent="1">
          <mxGeometry x="166.5" y="530" width="97" height="40" as="geometry" />
        </mxCell>
        <mxCell id="63i7wqGlK94Z1JRqRX3E-18" value="" style="edgeStyle=orthogonalEdgeStyle;rounded=0;orthogonalLoop=1;jettySize=auto;html=1;" edge="1" parent="1" target="63i7wqGlK94Z1JRqRX3E-20">
          <mxGeometry relative="1" as="geometry">
            <mxPoint x="215.29999999999995" y="670" as="sourcePoint" />
          </mxGeometry>
        </mxCell>
        <mxCell id="63i7wqGlK94Z1JRqRX3E-23" value="" style="edgeStyle=orthogonalEdgeStyle;rounded=0;orthogonalLoop=1;jettySize=auto;html=1;" edge="1" parent="1" source="63i7wqGlK94Z1JRqRX3E-20" target="63i7wqGlK94Z1JRqRX3E-22">
          <mxGeometry relative="1" as="geometry" />
        </mxCell>
        <mxCell id="63i7wqGlK94Z1JRqRX3E-32" value="" style="edgeStyle=orthogonalEdgeStyle;rounded=0;orthogonalLoop=1;jettySize=auto;html=1;" edge="1" parent="1" source="63i7wqGlK94Z1JRqRX3E-20" target="63i7wqGlK94Z1JRqRX3E-31">
          <mxGeometry relative="1" as="geometry" />
        </mxCell>
        <mxCell id="63i7wqGlK94Z1JRqRX3E-20" value="except ValueError&lt;br&gt;?" style="rhombus;whiteSpace=wrap;html=1;" vertex="1" parent="1">
          <mxGeometry x="140" y="710" width="150" height="80" as="geometry" />
        </mxCell>
        <mxCell id="63i7wqGlK94Z1JRqRX3E-21" value="Prompt user to input a year between year_range[0] and year_range[1]&lt;br&gt;and store it into year_sel" style="shape=parallelogram;perimeter=parallelogramPerimeter;whiteSpace=wrap;html=1;fixedSize=1;" vertex="1" parent="1">
          <mxGeometry x="98.35" y="610" width="232.5" height="60" as="geometry" />
        </mxCell>
        <mxCell id="63i7wqGlK94Z1JRqRX3E-25" value="" style="edgeStyle=orthogonalEdgeStyle;rounded=0;orthogonalLoop=1;jettySize=auto;html=1;" edge="1" parent="1" source="63i7wqGlK94Z1JRqRX3E-22" target="63i7wqGlK94Z1JRqRX3E-24">
          <mxGeometry relative="1" as="geometry" />
        </mxCell>
        <mxCell id="63i7wqGlK94Z1JRqRX3E-22" value="Display &quot;Year selected is invalid! Please try again&quot;" style="shape=parallelogram;perimeter=parallelogramPerimeter;whiteSpace=wrap;html=1;fixedSize=1;" vertex="1" parent="1">
          <mxGeometry x="320" y="720" width="210" height="60" as="geometry" />
        </mxCell>
        <mxCell id="63i7wqGlK94Z1JRqRX3E-29" value="" style="edgeStyle=orthogonalEdgeStyle;rounded=0;orthogonalLoop=1;jettySize=auto;html=1;" edge="1" parent="1" source="63i7wqGlK94Z1JRqRX3E-24" target="63i7wqGlK94Z1JRqRX3E-27">
          <mxGeometry relative="1" as="geometry" />
        </mxCell>
        <mxCell id="63i7wqGlK94Z1JRqRX3E-24" value="enter_to_continue()" style="shape=process;whiteSpace=wrap;html=1;backgroundOutline=1;" vertex="1" parent="1">
          <mxGeometry x="560" y="720" width="140" height="60" as="geometry" />
        </mxCell>
        <mxCell id="63i7wqGlK94Z1JRqRX3E-26" value="True" style="text;html=1;strokeColor=none;fillColor=none;align=center;verticalAlign=middle;whiteSpace=wrap;rounded=0;" vertex="1" parent="1">
          <mxGeometry x="280" y="720" width="60" height="30" as="geometry" />
        </mxCell>
        <mxCell id="63i7wqGlK94Z1JRqRX3E-37" style="edgeStyle=orthogonalEdgeStyle;rounded=0;orthogonalLoop=1;jettySize=auto;html=1;exitX=1;exitY=0.5;exitDx=0;exitDy=0;" edge="1" parent="1" source="63i7wqGlK94Z1JRqRX3E-27">
          <mxGeometry relative="1" as="geometry">
            <mxPoint x="215" y="410" as="targetPoint" />
            <Array as="points">
              <mxPoint x="872" y="750" />
            </Array>
          </mxGeometry>
        </mxCell>
        <mxCell id="63i7wqGlK94Z1JRqRX3E-27" value="continue" style="rounded=0;whiteSpace=wrap;html=1;" vertex="1" parent="1">
          <mxGeometry x="740" y="730" width="100" height="40" as="geometry" />
        </mxCell>
        <mxCell id="63i7wqGlK94Z1JRqRX3E-34" value="" style="edgeStyle=orthogonalEdgeStyle;rounded=0;orthogonalLoop=1;jettySize=auto;html=1;" edge="1" parent="1" source="63i7wqGlK94Z1JRqRX3E-31" target="63i7wqGlK94Z1JRqRX3E-33">
          <mxGeometry relative="1" as="geometry" />
        </mxCell>
        <mxCell id="63i7wqGlK94Z1JRqRX3E-31" value="year_sel not in years&lt;br&gt;?" style="rhombus;whiteSpace=wrap;html=1;" vertex="1" parent="1">
          <mxGeometry x="142.5" y="830" width="145" height="80" as="geometry" />
        </mxCell>
        <mxCell id="63i7wqGlK94Z1JRqRX3E-36" value="" style="edgeStyle=orthogonalEdgeStyle;rounded=0;orthogonalLoop=1;jettySize=auto;html=1;" edge="1" parent="1" source="63i7wqGlK94Z1JRqRX3E-33" target="63i7wqGlK94Z1JRqRX3E-35">
          <mxGeometry relative="1" as="geometry" />
        </mxCell>
        <mxCell id="63i7wqGlK94Z1JRqRX3E-33" value="Display &quot;Year selected is out of &lt;br&gt;range! Please try again&quot;" style="shape=parallelogram;perimeter=parallelogramPerimeter;whiteSpace=wrap;html=1;fixedSize=1;" vertex="1" parent="1">
          <mxGeometry x="320" y="840" width="210" height="60" as="geometry" />
        </mxCell>
        <mxCell id="63i7wqGlK94Z1JRqRX3E-39" value="" style="edgeStyle=orthogonalEdgeStyle;rounded=0;orthogonalLoop=1;jettySize=auto;html=1;" edge="1" parent="1" source="63i7wqGlK94Z1JRqRX3E-35" target="63i7wqGlK94Z1JRqRX3E-38">
          <mxGeometry relative="1" as="geometry" />
        </mxCell>
        <mxCell id="63i7wqGlK94Z1JRqRX3E-35" value="enter_to_continue()" style="shape=process;whiteSpace=wrap;html=1;backgroundOutline=1;" vertex="1" parent="1">
          <mxGeometry x="560" y="840" width="140" height="60" as="geometry" />
        </mxCell>
        <mxCell id="63i7wqGlK94Z1JRqRX3E-40" style="edgeStyle=orthogonalEdgeStyle;rounded=0;orthogonalLoop=1;jettySize=auto;html=1;exitX=1;exitY=0.5;exitDx=0;exitDy=0;" edge="1" parent="1" source="63i7wqGlK94Z1JRqRX3E-38">
          <mxGeometry relative="1" as="geometry">
            <mxPoint x="872" y="750" as="targetPoint" />
          </mxGeometry>
        </mxCell>
        <mxCell id="63i7wqGlK94Z1JRqRX3E-38" value="continue" style="rounded=0;whiteSpace=wrap;html=1;" vertex="1" parent="1">
          <mxGeometry x="740" y="850" width="100" height="40" as="geometry" />
        </mxCell>
        <mxCell id="63i7wqGlK94Z1JRqRX3E-41" value="True" style="text;html=1;strokeColor=none;fillColor=none;align=center;verticalAlign=middle;whiteSpace=wrap;rounded=0;" vertex="1" parent="1">
          <mxGeometry x="275" y="840" width="60" height="30" as="geometry" />
        </mxCell>
        <mxCell id="63i7wqGlK94Z1JRqRX3E-42" value="False" style="text;html=1;strokeColor=none;fillColor=none;align=center;verticalAlign=middle;whiteSpace=wrap;rounded=0;fontFamily=Helvetica;fontSize=12.1;" vertex="1" parent="1">
          <mxGeometry x="208" y="790" width="60" height="30" as="geometry" />
        </mxCell>
        <mxCell id="63i7wqGlK94Z1JRqRX3E-43" value="" style="edgeStyle=orthogonalEdgeStyle;rounded=0;orthogonalLoop=1;jettySize=auto;html=1;" edge="1" parent="1" target="63i7wqGlK94Z1JRqRX3E-44">
          <mxGeometry relative="1" as="geometry">
            <mxPoint x="214.6" y="910" as="sourcePoint" />
          </mxGeometry>
        </mxCell>
        <mxCell id="63i7wqGlK94Z1JRqRX3E-48" value="" style="edgeStyle=orthogonalEdgeStyle;rounded=0;orthogonalLoop=1;jettySize=auto;html=1;" edge="1" parent="1" source="63i7wqGlK94Z1JRqRX3E-44" target="63i7wqGlK94Z1JRqRX3E-47">
          <mxGeometry relative="1" as="geometry" />
        </mxCell>
        <mxCell id="63i7wqGlK94Z1JRqRX3E-44" value="break" style="whiteSpace=wrap;html=1;" vertex="1" parent="1">
          <mxGeometry x="162.41" y="950" width="104.38" height="40" as="geometry" />
        </mxCell>
        <mxCell id="63i7wqGlK94Z1JRqRX3E-45" value="False" style="text;html=1;strokeColor=none;fillColor=none;align=center;verticalAlign=middle;whiteSpace=wrap;rounded=0;fontFamily=Helvetica;fontSize=12.1;" vertex="1" parent="1">
          <mxGeometry x="207.6" y="910" width="60" height="30" as="geometry" />
        </mxCell>
        <mxCell id="63i7wqGlK94Z1JRqRX3E-51" value="" style="edgeStyle=orthogonalEdgeStyle;rounded=0;orthogonalLoop=1;jettySize=auto;html=1;" edge="1" parent="1" source="63i7wqGlK94Z1JRqRX3E-47" target="63i7wqGlK94Z1JRqRX3E-50">
          <mxGeometry relative="1" as="geometry" />
        </mxCell>
        <mxCell id="63i7wqGlK94Z1JRqRX3E-47" value="options.disp_num_dentists_by_sector(year_sel)" style="shape=process;whiteSpace=wrap;html=1;backgroundOutline=1;size=0.04918032786885246;" vertex="1" parent="1">
          <mxGeometry x="62.099999999999994" y="1030" width="305" height="60" as="geometry" />
        </mxCell>
        <mxCell id="63i7wqGlK94Z1JRqRX3E-50" value="END&lt;br&gt;submenu_A()" style="ellipse;whiteSpace=wrap;html=1;rounded=0;" vertex="1" parent="1">
          <mxGeometry x="170" y="1130" width="90" height="60" as="geometry" />
        </mxCell>
      </root>
    </mxGraphModel>
  </diagram>
</mxfile>
